<svg width="209" height="209" viewBox="0 0 209 209" fill="none" xmlns="http://www.w3.org/2000/svg">
<g filter="url(#filter0_d_1_23)">
<path d="M202.368 138.118L175.298 37.0982C165.498 0.518166 119.768 -11.7318 92.9983 15.0482L19.0482 88.9982C-7.73176 115.778 4.51824 161.498 41.0982 171.298L142.108 198.368C178.688 208.168 212.168 174.688 202.368 138.118L175.298 37.0982C165.498 0.518166 119.768 -11.7318 92.9983 15.0482L19.0482 88.9982C-7.73176 115.778 4.51824 161.498 41.0982 171.298L142.108 198.368C178.688 208.168 212.168 174.688 202.368 138.118Z" fill="url(#paint0_linear_1_23)"/>
</g>
<defs>
<filter id="filter0_d_1_23" x="0.607285" y="0.607208" width="207.489" height="207.489" filterUnits="userSpaceOnUse" color-interpolation-filters="sRGB">
<feFlood flood-opacity="0" result="BackgroundImageFix"/>
<feColorMatrix in="SourceAlpha" type="matrix" values="0 0 0 0 0 0 0 0 0 0 0 0 0 0 0 0 0 0 127 0" result="hardAlpha"/>
<feOffset dy="4"/>
<feGaussianBlur stdDeviation="2"/>
<feColorMatrix type="matrix" values="0 0 0 0 0 0 0 0 0 0 0 0 0 0 0 0 0 0 0.25 0"/>
<feBlend mode="normal" in2="BackgroundImageFix" result="effect1_dropShadow_1_23"/>
<feBlend mode="normal" in="SourceGraphic" in2="effect1_dropShadow_1_23" result="shape"/>
</filter>
<linearGradient id="paint0_linear_1_23" x1="4.60824" y1="100.35" x2="204.092" y2="100.35" gradientUnits="userSpaceOnUse">
<stop stop-color="#29A9E1"/>
<stop offset="1" stop-color="#2977E1"/>
</linearGradient>
</defs>
</svg>
