<svg width="139" height="89" viewBox="0 0 139 89" fill="none" xmlns="http://www.w3.org/2000/svg">
<path d="M17.9608 74.5564H24.7284C30.1854 74.5564 32.9139 76.4685 32.9139 80.2927C32.9139 82.9138 31.9471 84.9548 30.0135 86.4158C28.1229 87.8767 25.4588 88.6072 22.0213 88.6072H10.4198C7.2401 88.6072 4.72643 87.8552 2.87877 86.3513C1.03111 84.8474 0.107285 82.8279 0.107285 80.2927C0.107285 78.9607 0.730331 76.7478 1.97643 73.6541L28.0155 9.58765L28.7245 7.84741C30.701 3.03491 33.8592 0.628662 38.1991 0.628662C40.0038 0.628662 41.5292 1.23022 42.7753 2.43335C44.0643 3.63647 44.7088 5.07593 44.7088 6.75171C44.7088 8.04077 44.3866 9.50171 43.7421 11.1345L43.0331 12.8748L17.9608 74.5564ZM79.7713 74.5564H86.8612C92.2753 74.5564 94.9823 76.447 94.9823 80.2283C94.9823 82.8494 94.0155 84.9119 92.0819 86.4158C90.1483 87.8767 87.4842 88.6072 84.0897 88.6072H75.8397C72.1444 88.6072 69.6307 87.1677 68.2987 84.2888C65.076 87.1677 61.9608 88.6072 58.953 88.6072H51.6053C46.8788 88.6072 43.0546 86.9314 40.1327 83.5798C37.2538 80.1853 35.8143 75.7595 35.8143 70.3025C35.8143 62.0525 38.6503 54.6833 44.3221 48.1951C50.037 41.6638 56.4823 38.3982 63.6581 38.3982C69.1581 38.3982 73.1756 40.3103 75.7108 44.1345C77.8592 40.9119 80.6737 39.3005 84.1542 39.3005C86.0448 39.3005 87.6131 39.9021 88.8592 41.1052C90.1483 42.3083 90.7928 43.7908 90.7928 45.5525C90.7928 46.7556 90.4491 48.1951 89.7616 49.8708L89.0526 51.6111L79.7713 74.5564ZM56.3749 74.8787H57.9862C61.5096 74.8787 63.8514 73.4392 65.0116 70.5603L69.5233 59.4099C70.1249 57.949 70.4256 56.7244 70.4256 55.7361C70.4256 54.5759 69.8456 53.5662 68.6854 52.7068C67.5682 51.8474 66.2147 51.4177 64.6249 51.4177C61.4881 51.4177 58.4374 53.2439 55.4725 56.8962C52.5077 60.5486 51.0253 64.3298 51.0253 68.24C51.0253 72.6658 52.8085 74.8787 56.3749 74.8787ZM118.959 56.8962L117.734 59.8611C115.844 64.115 113.158 66.2419 109.678 66.2419C107.916 66.2419 106.326 65.6404 104.908 64.4373C103.533 63.1912 102.846 61.7732 102.846 60.1833C102.846 58.6794 103.469 56.6814 104.715 54.1892L113.287 36.7869C115.392 32.6189 118.014 30.5349 121.15 30.5349C122.826 30.5349 124.265 31.0935 125.469 32.2107C126.672 33.2849 127.273 34.574 127.273 36.0779C127.273 36.4646 127.144 37.3025 126.887 38.5916C126.715 39.5369 126.629 40.3748 126.629 41.1052C126.629 43.8123 127.639 46.5837 129.658 49.4197L133.332 54.5115C137.07 59.7107 138.939 64.738 138.939 69.5935C138.939 75.0076 136.92 79.5408 132.881 83.1931C128.842 86.8025 123.814 88.6072 117.799 88.6072H104.328C98.871 88.6072 96.1424 86.7166 96.1424 82.9353C96.1424 80.3142 97.1092 78.2732 99.0428 76.8123C100.976 75.3083 103.64 74.5564 107.035 74.5564H114.512C120.484 74.5564 123.471 72.3865 123.471 68.0466C123.471 66.4568 122.912 64.5876 121.795 62.4392L118.959 56.8962Z" fill="white"/>
</svg>
