<svg width="269" height="269" viewBox="0 0 269 269" fill="none" xmlns="http://www.w3.org/2000/svg">
<path d="M204.525 86.6175L204.525 86.6175C239.492 97.7972 249.241 142.649 222.066 167.338L144.664 237.67C117.498 262.355 73.7766 248.368 65.9792 212.49L43.7788 110.299L43.7788 110.299C35.9815 74.4214 69.9449 43.5618 104.917 54.7503L204.525 86.6175Z" stroke="#2A81DD" stroke-width="3"/>
<g filter="url(#filter0_d_1_25)">
<path d="M219.368 174.118L192.298 73.0982C182.498 36.5182 136.768 24.2682 109.998 51.0482L36.0482 124.998C9.26824 151.778 21.5182 197.498 58.0982 207.298L159.108 234.368C195.688 244.168 229.168 210.688 219.368 174.118L192.298 73.0982C182.498 36.5182 136.768 24.2682 109.998 51.0482L36.0482 124.998C9.26824 151.778 21.5182 197.498 58.0982 207.298L159.108 234.368C195.688 244.168 229.168 210.688 219.368 174.118Z" fill="url(#paint0_linear_1_25)"/>
</g>
<path d="M73.9608 170.556H80.7284C86.1854 170.556 88.9139 172.469 88.9139 176.293C88.9139 178.914 87.9471 180.955 86.0135 182.416C84.1229 183.877 81.4588 184.607 78.0213 184.607H66.4198C63.2401 184.607 60.7264 183.855 58.8788 182.351C57.0311 180.847 56.1073 178.828 56.1073 176.293C56.1073 174.961 56.7303 172.748 57.9764 169.654L84.0155 105.588L84.7245 103.847C86.701 99.0349 89.8592 96.6287 94.1991 96.6287C96.0038 96.6287 97.5292 97.2302 98.7753 98.4333C100.064 99.6365 100.709 101.076 100.709 102.752C100.709 104.041 100.387 105.502 99.7421 107.135L99.0331 108.875L73.9608 170.556ZM135.771 170.556H142.861C148.275 170.556 150.982 172.447 150.982 176.228C150.982 178.849 150.015 180.912 148.082 182.416C146.148 183.877 143.484 184.607 140.09 184.607H131.84C128.144 184.607 125.631 183.168 124.299 180.289C121.076 183.168 117.961 184.607 114.953 184.607H107.605C102.879 184.607 99.0546 182.931 96.1327 179.58C93.2538 176.185 91.8143 171.76 91.8143 166.302C91.8143 158.052 94.6503 150.683 100.322 144.195C106.037 137.664 112.482 134.398 119.658 134.398C125.158 134.398 129.176 136.31 131.711 140.135C133.859 136.912 136.674 135.301 140.154 135.301C142.045 135.301 143.613 135.902 144.859 137.105C146.148 138.308 146.793 139.791 146.793 141.552C146.793 142.756 146.449 144.195 145.762 145.871L145.053 147.611L135.771 170.556ZM112.375 170.879H113.986C117.51 170.879 119.851 169.439 121.012 166.56L125.523 155.41C126.125 153.949 126.426 152.724 126.426 151.736C126.426 150.576 125.846 149.566 124.685 148.707C123.568 147.847 122.215 147.418 120.625 147.418C117.488 147.418 114.437 149.244 111.473 152.896C108.508 156.549 107.025 160.33 107.025 164.24C107.025 168.666 108.808 170.879 112.375 170.879ZM174.959 152.896L173.734 155.861C171.844 160.115 169.158 162.242 165.678 162.242C163.916 162.242 162.326 161.64 160.908 160.437C159.533 159.191 158.846 157.773 158.846 156.183C158.846 154.679 159.469 152.681 160.715 150.189L169.287 132.787C171.392 128.619 174.014 126.535 177.15 126.535C178.826 126.535 180.265 127.094 181.469 128.211C182.672 129.285 183.273 130.574 183.273 132.078C183.273 132.465 183.144 133.302 182.887 134.592C182.715 135.537 182.629 136.375 182.629 137.105C182.629 139.812 183.639 142.584 185.658 145.42L189.332 150.511C193.07 155.711 194.939 160.738 194.939 165.594C194.939 171.008 192.92 175.541 188.881 179.193C184.842 182.802 179.814 184.607 173.799 184.607H160.328C154.871 184.607 152.142 182.717 152.142 178.935C152.142 176.314 153.109 174.273 155.043 172.812C156.976 171.308 159.64 170.556 163.035 170.556H170.512C176.484 170.556 179.471 168.386 179.471 164.047C179.471 162.457 178.912 160.588 177.795 158.439L174.959 152.896Z" fill="white"/>
<defs>
<filter id="filter0_d_1_25" x="17.6073" y="36.6072" width="207.489" height="207.489" filterUnits="userSpaceOnUse" color-interpolation-filters="sRGB">
<feFlood flood-opacity="0" result="BackgroundImageFix"/>
<feColorMatrix in="SourceAlpha" type="matrix" values="0 0 0 0 0 0 0 0 0 0 0 0 0 0 0 0 0 0 127 0" result="hardAlpha"/>
<feOffset dy="4"/>
<feGaussianBlur stdDeviation="2"/>
<feColorMatrix type="matrix" values="0 0 0 0 0 0 0 0 0 0 0 0 0 0 0 0 0 0 0.25 0"/>
<feBlend mode="normal" in2="BackgroundImageFix" result="effect1_dropShadow_1_25"/>
<feBlend mode="normal" in="SourceGraphic" in2="effect1_dropShadow_1_25" result="shape"/>
</filter>
<linearGradient id="paint0_linear_1_25" x1="21.6082" y1="136.35" x2="221.092" y2="136.35" gradientUnits="userSpaceOnUse">
<stop stop-color="#29A9E1"/>
<stop offset="1" stop-color="#2977E1"/>
</linearGradient>
</defs>
</svg>
